<?xml version="1.0" encoding="UTF-8" standalone="no"?>
<svg
   xmlns:dc="http://purl.org/dc/elements/1.1/"
   xmlns:cc="http://creativecommons.org/ns#"
   xmlns:rdf="http://www.w3.org/1999/02/22-rdf-syntax-ns#"
   xmlns:svg="http://www.w3.org/2000/svg"
   xmlns="http://www.w3.org/2000/svg"
   width="7.4083667mm"
   height="4.7624788mm"
   viewBox="0 0 7.4083667 4.7624788"
   version="1.1"
   id="svg8">
  <defs
     id="defs2" />
  <metadata
     id="metadata5">
    <rdf:RDF>
      <cc:Work
         rdf:about="">
        <dc:format>image/svg+xml</dc:format>
        <dc:type
           rdf:resource="http://purl.org/dc/dcmitype/StillImage" />
        <dc:title></dc:title>
      </cc:Work>
    </rdf:RDF>
  </metadata>
  <path
     id="rect4518"
     d="m 0.93247389,1.48e-5 v 0.00109 c -0.66930897,0.01458 -0.93961097,0.050346 -0.93233096603,1.354241 l 0.001499996,1.833361 c -0.0067,1.5377003 0.262781,1.5569523 0.93081997,1.5711723 v 0.0026 h 0.03626 5.47342801 0.02988 v -0.0011 c 0.670476,-0.01274 0.953673,-0.03485 0.935518,-1.577265 -0.0017,-1.3877494 0,-0.222807 -0.0017,-1.6105552 0.0062,-1.5392222 -0.09279,-1.5587086 -0.76192,-1.5711689 V 0 H 6.4389399 0.96550889 Z m -0.03408,0.5624539 c 0.16993301,0 0.29756201,0.086756 0.38314101,0.26044845 0.08619,0.1736923 0.131517,0.40564785 0.135829,0.69561545 l -0.273338,0.027864 c -0.01176,-0.1622083 -0.03693,-0.2784483 -0.07571,-0.348785 -0.03816,-0.071769 -0.09582,-0.1077044 -0.17276101,-0.1077044 -0.07944,0 -0.14159697,0.038153 -0.18653797,0.1142312 -0.02892,0.048805 -0.04332,0.1140045 -0.04332,0.195825 0,0.074642 0.01344,0.1385744 0.04063,0.1916923 0.03447,0.067464 0.11818997,0.1378508 0.25116297,0.2110566 0.13297201,0.073209 0.23108601,0.1492987 0.29448901,0.2282465 0.06404,0.077515 0.113877,0.1843446 0.149605,0.3207194 0.03632,0.1349312 0.05457,0.302219 0.05457,0.5017481 0,0.1808706 -0.02156,0.3503725 -0.06465,0.5082758 -0.04309,0.157899 -0.104021,0.275623 -0.182841,0.353138 -0.07882,0.07608 -0.177074,0.114015 -0.29465801,0.114015 -0.17116497,0 -0.30265397,-0.09194 -0.39438797,-0.27568 -0.09173,-0.185173 -0.146526,-0.4543297 -0.164362,-0.8074537 l 0.266114,-0.060271 c 0.01596,0.2081405 0.04824,0.3610548 0.09688,0.4586663 0.04925,0.097614 0.11550197,0.1464331 0.19863397,0.1464331 0.08803,0 0.15411301,-0.043121 0.19846601,-0.1292467 0.04494,-0.087566 0.06748,-0.1894351 0.06748,-0.3057039 0,-0.074642 -0.0095,-0.1378364 -0.0287,-0.1895142 C 1.1356489,2.612974 1.1030289,2.56711 1.0562389,2.528353 1.0242389,2.502505 0.95137789,2.45663 0.83747289,2.3906209 0.69094692,2.305928 0.58799092,2.2018376 0.52887892,2.0783868 c -0.08313,-0.1736923 -0.124572,-0.385574 -0.124572,-0.6353445 0,-0.1607719 0.01932,-0.3107222 0.0581,-0.44996335 0.0394,-0.1406768 0.09582,-0.24751005 0.169065,-0.32071945 0.07389,-0.073209 0.16290597,-0.1098789 0.26695497,-0.1098789 z m 4.12253501,0 c 0.199474,0 0.358895,0.1442444 0.478336,0.43277415 0.120066,0.28852475 0.180154,0.68977745 0.180154,1.20367335 0,0.5095914 -0.05947,0.9086196 -0.178306,1.1971459 -0.118833,0.287096 -0.277622,0.430598 -0.476491,0.430598 -0.201321,0 -0.36136,-0.142764 -0.480184,-0.428422 -0.118833,-0.2870955 -0.178305,-0.6818988 -0.178305,-1.1843085 0,-0.3215438 0.02044,-0.5914411 0.0618,-0.8096293 0.03077,-0.1607719 0.0728,-0.3050163 0.125749,-0.43277415 0.05356,-0.1277529 0.112028,-0.22243615 0.175449,-0.28416515 0.08434,-0.083257 0.18161,-0.1248944 0.291805,-0.1248944 z m 0.874573,0.053744 h 0.273338 v 1.4018927 l 0.552215,-1.4018923 h 0.367526 l -0.509733,1.2295659 0.537436,1.9271401 h -0.353588 l -0.37223,-1.4815285 -0.221622,0.5276406 v 0.9538869 h -0.273338 z m -0.871888,0.4908689 c -0.112673,0 -0.203365,0.090457 -0.27233,0.2713275 -0.06896,0.1794307 -0.103433,0.4508069 -0.103433,0.813981 0,0.3574285 0.03531,0.6288029 0.106121,0.8139806 0.07081,0.1837362 0.160665,0.2754603 0.269642,0.2754603 0.108976,0 0.198214,-0.090979 0.267794,-0.2732859 0.0702,-0.1837363 0.105281,-0.4588183 0.105281,-0.8248605 0,-0.3617373 -0.03408,-0.6314111 -0.102425,-0.8094115 -0.06773,-0.1779942 -0.157978,-0.2671948 -0.27065,-0.2671915 z m -2.963544,0.3274622 c 0.145909,0 0.261018,0.1125429 0.345364,0.3379058 0.08434,0.2239337 0.12474,0.5679109 0.121044,1.0315646 h -0.650095 c 0.0019,0.1794306 0.02268,0.3192362 0.0628,0.4197191 0.04001,0.099043 0.08988,0.1486118 0.149605,0.1486118 0.04063,0 0.0747,-0.02578 0.102425,-0.077461 0.02772,-0.051678 0.04864,-0.1349492 0.0628,-0.2497852 l 0.258554,0.1011777 c -0.03324,0.2210605 -0.08579,0.3898235 -0.157808,0.5060995 -0.07143,0.114836 -0.161058,0.172109 -0.268803,0.172109 -0.170549,0 -0.296724,-0.12987 -0.378607,-0.389693 -0.06465,-0.20814 -0.09688,-0.4708514 -0.09688,-0.7880878 0,-0.3789608 0.04248,-0.6753813 0.127429,-0.8892647 0.08495,-0.2153189 0.192277,-0.3228938 0.322192,-0.3228938 z m 1.043647,0 c 0.06527,0 0.121493,0.03222 0.168898,0.096825 0.04802,0.064598 0.0905,0.1622407 0.127428,0.2928663 V 1.4861104 h 0.239263 v 3.1567057 h -0.259563 v -1.14993 c -0.03385,0.101915 -0.07594,0.183182 -0.126421,0.243474 -0.05048,0.05885 -0.105029,0.08812 -0.163521,0.08812 -0.111441,0 -0.203142,-0.09764 -0.275186,-0.292867 -0.08495,-0.2282389 -0.12743,-0.5375468 -0.12743,-0.927994 0,-0.3674786 0.03979,-0.6537515 0.119198,-0.8590207 0.08002,-0.2067078 0.179145,-0.3100563 0.297345,-0.3100563 z m -1.027868,0.4628013 c -0.05664,0 -0.103432,0.048082 -0.140365,0.1442588 -0.03693,0.096174 -0.05519,0.2267849 -0.05457,0.3918684 h 0.387843 c -0.0019,-0.1751286 -0.02128,-0.3077449 -0.0581,-0.3981781 -0.03693,-0.091872 -0.08187,-0.137948 -0.134821,-0.137948 z m 1.097035,0.010872 c -0.0628,0 -0.115333,0.058014 -0.157809,0.1742863 -0.04186,0.116276 -0.0628,0.3008942 -0.0628,0.5535331 0,0.2512073 0.02044,0.4326453 0.06096,0.5446122 0.04063,0.1105304 0.09072,0.1657974 0.150445,0.1657974 0.05973,0 0.112029,-0.062456 0.156998,-0.1873398 0.04494,-0.1248836 0.06751,-0.310769 0.06751,-0.5576671 0,-0.2339848 -0.02072,-0.4074968 -0.06196,-0.5208957 -0.04063,-0.1148396 -0.09173,-0.1723278 -0.153302,-0.1723278 z"
     style="opacity:0.95999995;fill:#00d61e;fill-opacity:1;stroke:none;stroke-width:0.10512352;stroke-miterlimit:10;stroke-dasharray:none;stroke-opacity:1" />
</svg>
